<svg width="1537" height="131" viewBox="0 0 1537 131" fill="none" xmlns="http://www.w3.org/2000/svg">
<g clip-path="url(#clip0_84_3360)">
<path d="M10.6135 93.6847C10.6135 91.3409 10.6133 92.5358 10.5903 90.6273M95.3322 93.2222L95.3398 93.6847M10.6217 93.6844L10.5898 89.485M129.628 89.485L129.622 93.6844M10.6306 93.6856L10.5898 88.315C10.5898 45.951 44.9335 11.6074 87.2974 11.6074C129.661 11.6074 164.005 45.951 164.005 88.315V93.6856" stroke="#3186FF" stroke-width="19.825" stroke-miterlimit="10"/>
<path d="M10.6135 93.6848C10.6135 91.341 10.6133 92.5359 10.5903 90.6274M10.6217 93.6845L10.5898 89.4851C10.5898 56.3598 37.9519 30.4258 70.569 30.4258C103.186 30.4258 129.628 56.8679 129.628 89.4851L129.622 93.6845M10.6306 93.6857L10.5898 88.3151" stroke="#4FA0FF" stroke-width="19.825" stroke-miterlimit="10"/>
<path d="M139.533 120.782C139.533 123.941 136.973 126.501 133.814 126.501L125.427 126.501C122.269 126.501 119.708 123.941 119.708 120.782L119.708 93.6836L139.533 93.6836L139.533 120.782Z" fill="#4FA0FF"/>
<path d="M173.893 120.782C173.893 123.941 171.332 126.501 168.174 126.501L159.786 126.501C156.628 126.501 154.068 123.941 154.068 120.782L154.068 93.6836L173.893 93.6836L173.893 120.782Z" fill="#3186FF"/>
<path d="M51.6629 39.6426C80.899 39.6426 104.665 63.0587 105.232 92.1592H105.253V120.782C105.253 123.941 102.692 126.501 99.534 126.501H91.1463C87.9879 126.501 85.4276 123.941 85.4276 120.782V93.8467L85.4198 93.3838L85.4188 93.3037V93.2236C85.4187 74.5811 70.3055 59.4668 51.6629 59.4668C41.9771 59.4669 34.2287 62.8373 28.9647 68.0752C23.9485 73.0667 20.6854 80.2526 20.5076 89.249L20.5418 93.6113H20.5242C20.5242 93.6353 20.5252 93.6598 20.5252 93.6846H20.5526V120.783C20.5524 123.941 17.9921 126.502 14.8338 126.502H6.4471C3.28885 126.502 0.72855 123.941 0.72835 120.783V93.7607L0.717608 93.7617V93.7598L0.708819 93.7607L0.707842 93.6855H0.70003C0.70003 92.9141 0.698644 92.552 0.698077 92.3516L0.695147 91.9463C0.69431 91.8999 0.692748 91.8384 0.691241 91.749C0.687681 91.538 0.683487 91.2384 0.677569 90.748C0.670851 90.1914 0.673604 89.6368 0.682452 89.085L0.676592 88.3916L0.698077 88.3906C1.07691 74.825 6.15739 62.8017 14.9813 54.0215C24.2974 44.7516 37.2318 39.6426 51.6629 39.6426Z" fill="#76BBFF"/>
<path d="M51.6629 39.6426C80.899 39.6426 104.665 63.0587 105.232 92.1592H105.253V120.782C105.253 123.941 102.692 126.501 99.534 126.501H91.1463C87.9879 126.501 85.4276 123.941 85.4276 120.782V93.8467L85.4198 93.3838L85.4188 93.3037V93.2236C85.4187 74.5811 70.3055 59.4668 51.6629 59.4668C41.9771 59.4669 34.2287 62.8373 28.9647 68.0752C23.9485 73.0667 20.6854 80.2526 20.5076 89.249L20.5418 93.6113H20.5242C20.5242 93.6353 20.5252 93.6598 20.5252 93.6846H20.5526V120.783C20.5524 123.941 17.9921 126.502 14.8338 126.502H6.4471C3.28885 126.502 0.72855 123.941 0.72835 120.783V93.7607L0.717608 93.7617V93.7598L0.708819 93.7607L0.707842 93.6855H0.70003C0.70003 92.9141 0.698644 92.552 0.698077 92.3516L0.695147 91.9463C0.69431 91.8999 0.692748 91.8384 0.691241 91.749C0.687681 91.538 0.683487 91.2384 0.677569 90.748C0.670851 90.1914 0.673604 89.6368 0.682452 89.085L0.676592 88.3916L0.698077 88.3906C1.07691 74.825 6.15739 62.8017 14.9813 54.0215C24.2974 44.7516 37.2318 39.6426 51.6629 39.6426Z" fill="url(#paint0_radial_84_3360)"/>
<path d="M287.496 129.343C269.605 129.172 254.582 122.981 242.428 110.77C230.33 98.5021 224.281 83.3373 224.281 65.276C224.281 47.101 230.359 31.9647 242.513 19.867C254.724 7.76928 269.776 1.72043 287.667 1.72043C297.606 1.72043 306.296 3.39593 313.736 6.74694C321.177 10.0411 327.595 14.6133 332.99 20.4634L320.381 33.413C315.27 28.0173 310.101 24.3255 304.876 22.3376C299.651 20.3498 294.028 19.3558 288.007 19.3558C275.114 19.3558 264.38 23.644 255.804 32.2203C247.227 40.7398 242.939 51.8151 242.939 65.4464C242.939 79.0776 247.284 90.2381 255.974 98.928C264.721 107.618 275.398 111.963 288.007 111.963C299.48 111.963 308.965 108.839 316.462 102.591C324.016 96.287 328.305 87.5403 329.327 76.3513H287.241V59.3975H346.792C347.133 61.7262 347.332 63.5437 347.388 64.85C347.502 66.0995 347.559 67.5194 347.559 69.1098C347.559 87.4551 341.964 102.08 330.775 112.985C319.586 123.89 305.16 129.343 287.496 129.343ZM400.897 129.343C387.777 129.343 377.1 125.026 368.864 116.393C360.685 107.703 356.596 96.571 356.596 82.9966C356.596 69.5925 360.657 58.5172 368.779 49.7705C376.958 41.0238 387.465 36.6504 400.301 36.6504C412.74 36.6504 422.849 40.7682 430.631 49.0037C438.469 57.2392 442.388 68.0022 442.388 81.2927C442.388 82.5422 442.331 83.5645 442.217 84.3597C442.16 85.098 442.047 86.1772 441.876 87.5971H366.393V73.1139H423.815C423.19 67.1503 420.805 62.1805 416.659 58.2048C412.569 54.229 407.088 52.2411 400.216 52.2411C392.719 52.2411 386.613 54.9674 381.899 60.4199C377.242 65.8723 374.913 73.2559 374.913 82.5706C374.913 92.226 377.526 99.922 382.751 105.658C387.976 111.338 394.621 114.178 402.687 114.178C408.025 114.178 412.654 113.042 416.573 110.77C420.549 108.441 424.213 104.721 427.564 99.6096L440.343 107.959C436.197 115.115 430.915 120.482 424.497 124.061C418.079 127.582 410.212 129.343 400.897 129.343ZM453.683 126.531V39.3767H471.403V54.2858L469.699 52.1559H471.914C474.413 47.6122 478.219 43.892 483.33 40.9954C488.442 38.0419 493.809 36.5652 499.432 36.5652C505.68 36.5652 511.161 38.0419 515.875 40.9954C520.589 43.9488 524.025 48.0098 526.184 53.1783C529.478 47.7258 533.709 43.608 538.878 40.825C544.046 37.9851 549.783 36.5652 556.087 36.5652C566.083 36.5652 573.694 39.5471 578.919 45.5107C584.201 51.4744 586.842 59.8803 586.842 70.7285V126.531H568.44V73.7955C568.44 66.6391 566.964 61.3286 564.01 57.864C561.057 54.3426 556.541 52.5819 550.464 52.5819C544.5 52.5819 539.502 54.9958 535.47 59.8235C531.494 64.6512 529.506 70.5581 529.506 77.5441V126.531H511.019V73.9659C511.019 66.7527 509.542 61.3854 506.589 57.864C503.635 54.3426 499.148 52.5819 493.128 52.5819C487.221 52.5819 482.251 55.0526 478.219 59.9939C474.243 64.8784 472.255 70.8137 472.255 77.7997V126.531H453.683ZM601.559 126.531V39.3767H620.046V126.531H601.559ZM610.845 22.7636C607.664 22.7636 604.938 21.6561 602.666 19.441C600.394 17.1691 599.258 14.4429 599.258 11.2623C599.258 8.02486 600.394 5.32702 602.666 3.16874C604.938 1.01047 607.664 -0.0686721 610.845 -0.0686721C614.139 -0.0686721 616.865 1.01047 619.024 3.16874C621.182 5.32702 622.261 8.02486 622.261 11.2623C622.261 14.4429 621.182 17.1691 619.024 19.441C616.865 21.6561 614.139 22.7636 610.845 22.7636ZM635.401 126.531V39.3767H653.122V55.0526L650.736 52.1559H653.633C656.245 47.5554 660.193 43.8068 665.475 40.9102C670.814 38.0135 676.351 36.5652 682.088 36.5652C692.141 36.5652 699.979 39.5471 705.602 45.5107C711.281 51.4744 714.121 59.6531 714.121 70.0469V126.531H695.549V73.6251C695.549 66.6959 693.873 61.4706 690.522 57.9492C687.228 54.371 682.343 52.5819 675.869 52.5819C669.678 52.5819 664.481 55.0242 660.278 59.9087C656.075 64.7932 653.974 70.6717 653.974 77.5441V126.531H635.401ZM728.699 126.531V39.3767H747.186V126.531H728.699ZM737.985 22.7636C734.805 22.7636 732.078 21.6561 729.806 19.441C727.535 17.1691 726.399 14.4429 726.399 11.2623C726.399 8.02486 727.535 5.32702 729.806 3.16874C732.078 1.01047 734.805 -0.0686721 737.985 -0.0686721C741.279 -0.0686721 744.006 1.01047 746.164 3.16874C748.322 5.32702 749.401 8.02486 749.401 11.2623C749.401 14.4429 748.322 17.1691 746.164 19.441C744.006 21.6561 741.279 22.7636 737.985 22.7636ZM799.965 126.531V4.53186H820.923L877.833 94.4979H878.429L877.748 71.9212V4.53186H896.065V126.531H878.003L818.196 32.4759H817.6L818.282 55.0526V126.531H799.965ZM953.099 129.343C939.865 129.343 928.932 124.941 920.299 116.137C911.666 107.334 907.349 96.2586 907.349 82.9114C907.349 69.3937 911.666 58.29 920.299 49.6001C928.989 40.9102 939.922 36.5652 953.099 36.5652C966.276 36.5652 977.209 40.9386 985.899 49.6853C994.589 58.432 998.934 69.5073 998.934 82.9114C998.934 96.2586 994.617 107.334 985.984 116.137C977.351 124.941 966.389 129.343 953.099 129.343ZM953.099 113.156C960.88 113.156 967.412 110.344 972.694 104.721C977.976 99.0416 980.617 91.7716 980.617 82.9114C980.617 73.9375 977.947 66.6675 972.609 61.1014C967.326 55.5353 960.823 52.7523 953.099 52.7523C945.318 52.7523 938.786 55.5353 933.504 61.1014C928.222 66.6675 925.581 73.9375 925.581 82.9114C925.581 91.7716 928.193 99.0416 933.419 104.721C938.701 110.344 945.261 113.156 953.099 113.156ZM1041.53 129.343C1033.69 129.343 1027.44 127.071 1022.79 122.527C1018.13 117.927 1015.8 111.509 1015.8 103.273V15.0961H1034.29V99.6948C1034.29 104.352 1035.23 107.817 1037.1 110.089C1038.97 112.304 1041.76 113.411 1045.45 113.411C1046.87 113.411 1048.4 113.241 1050.05 112.9C1051.75 112.502 1053.66 111.906 1055.76 111.111V126.872C1053.09 127.781 1050.67 128.406 1048.52 128.746C1046.36 129.144 1044.03 129.343 1041.53 129.343ZM1001.32 54.8822V39.3767H1055.42V54.8822H1001.32ZM1105.75 129.343C1092.63 129.343 1081.95 125.026 1073.71 116.393C1065.54 107.703 1061.45 96.571 1061.45 82.9966C1061.45 69.5925 1065.51 58.5172 1073.63 49.7705C1081.81 41.0238 1092.31 36.6504 1105.15 36.6504C1117.59 36.6504 1127.7 40.7682 1135.48 49.0037C1143.32 57.2392 1147.24 68.0022 1147.24 81.2927C1147.24 82.5422 1147.18 83.5645 1147.07 84.3597C1147.01 85.098 1146.9 86.1772 1146.73 87.5971H1071.24V73.1139H1128.66C1128.04 67.1503 1125.65 62.1805 1121.51 58.2048C1117.42 54.229 1111.94 52.2411 1105.07 52.2411C1097.57 52.2411 1091.46 54.9674 1086.75 60.4199C1082.09 65.8723 1079.76 73.2559 1079.76 82.5706C1079.76 92.226 1082.38 99.922 1087.6 105.658C1092.83 111.338 1099.47 114.178 1107.54 114.178C1112.88 114.178 1117.5 113.042 1121.42 110.77C1125.4 108.441 1129.06 104.721 1132.41 99.6096L1145.19 107.959C1141.05 115.115 1135.76 120.482 1129.35 124.061C1122.93 127.582 1115.06 129.343 1105.75 129.343ZM1205.22 129.343C1199.09 129.343 1193.38 127.98 1188.09 125.253C1182.81 122.47 1178.75 118.864 1175.91 114.434H1171.14L1175.4 109.407V126.531H1157.68V4.53186H1176.25V51.2188H1176.76C1179.6 46.8454 1183.55 43.324 1188.61 40.6546C1193.72 37.9283 1199.31 36.5652 1205.39 36.5652C1217.2 36.5652 1227.03 40.825 1234.87 49.3445C1242.7 57.864 1246.62 68.9678 1246.62 82.6558C1246.62 96.2302 1242.7 107.419 1234.87 116.223C1227.03 124.969 1217.15 129.343 1205.22 129.343ZM1201.98 113.156C1209.42 113.156 1215.67 110.316 1220.72 104.636C1225.78 98.9564 1228.31 91.6581 1228.31 82.741C1228.31 73.8807 1225.75 66.6675 1220.64 61.1014C1215.58 55.5353 1209.37 52.7523 1201.98 52.7523C1194.65 52.7523 1188.41 55.5353 1183.24 61.1014C1178.13 66.6107 1175.57 73.7955 1175.57 82.6558C1175.57 91.6297 1178.13 98.9564 1183.24 104.636C1188.35 110.316 1194.6 113.156 1201.98 113.156ZM1299.9 129.343C1286.67 129.343 1275.73 124.941 1267.1 116.137C1258.47 107.334 1254.15 96.2586 1254.15 82.9114C1254.15 69.3937 1258.47 58.29 1267.1 49.6001C1275.79 40.9102 1286.72 36.5652 1299.9 36.5652C1313.08 36.5652 1324.01 40.9386 1332.7 49.6853C1341.39 58.432 1345.73 69.5073 1345.73 82.9114C1345.73 96.2586 1341.42 107.334 1332.78 116.137C1324.15 124.941 1313.19 129.343 1299.9 129.343ZM1299.9 113.156C1307.68 113.156 1314.21 110.344 1319.49 104.721C1324.78 99.0416 1327.42 91.7716 1327.42 82.9114C1327.42 73.9375 1324.75 66.6675 1319.41 61.1014C1314.13 55.5353 1307.62 52.7523 1299.9 52.7523C1292.12 52.7523 1285.59 55.5353 1280.3 61.1014C1275.02 66.6675 1272.38 73.9375 1272.38 82.9114C1272.38 91.7716 1274.99 99.0416 1280.22 104.721C1285.5 110.344 1292.06 113.156 1299.9 113.156ZM1399.07 129.343C1385.83 129.343 1374.9 124.941 1366.27 116.137C1357.63 107.334 1353.32 96.2586 1353.32 82.9114C1353.32 69.3937 1357.63 58.29 1366.27 49.6001C1374.95 40.9102 1385.89 36.5652 1399.07 36.5652C1412.24 36.5652 1423.18 40.9386 1431.87 49.6853C1440.56 58.432 1444.9 69.5073 1444.9 82.9114C1444.9 96.2586 1440.58 107.334 1431.95 116.137C1423.32 124.941 1412.36 129.343 1399.07 129.343ZM1399.07 113.156C1406.85 113.156 1413.38 110.344 1418.66 104.721C1423.94 99.0416 1426.58 91.7716 1426.58 82.9114C1426.58 73.9375 1423.91 66.6675 1418.57 61.1014C1413.29 55.5353 1406.79 52.7523 1399.07 52.7523C1391.28 52.7523 1384.75 55.5353 1379.47 61.1014C1374.19 66.6675 1371.55 73.9375 1371.55 82.9114C1371.55 91.7716 1374.16 99.0416 1379.39 104.721C1384.67 110.344 1391.23 113.156 1399.07 113.156ZM1463.9 109.748V87.1711L1510.33 39.3767H1534.18L1463.9 109.748ZM1454.36 126.531V4.53186H1472.93V126.531H1454.36ZM1512.46 126.531L1483.15 81.2075L1496.19 68.343L1535.38 126.531H1512.46Z" fill="#212226"/>
</g>
<defs>
<radialGradient id="paint0_radial_84_3360" cx="0" cy="0" r="1" gradientTransform="matrix(-63.2887 3.8125 -5.39367 -89.532 87.5016 101.339)" gradientUnits="userSpaceOnUse">
<stop offset="0.566674" stop-color="#76BBFF"/>
<stop offset="1" stop-color="#A9A8FF"/>
</radialGradient>
<clipPath id="clip0_84_3360">
<rect width="1537" height="131" fill="white"/>
</clipPath>
</defs>
</svg>
