<?xml version="1.0" encoding="UTF-8" standalone="no"?>
<svg
   width="190"
   height="131"
   viewBox="0 0 190 131"
   fill="none"
   version="1.1"
   id="svg8"
   sodipodi:docname="notebook-logo.svg"
   inkscape:version="1.4 (86a8ad7, 2024-10-11)"
   xmlns:inkscape="http://www.inkscape.org/namespaces/inkscape"
   xmlns:sodipodi="http://sodipodi.sourceforge.net/DTD/sodipodi-0.dtd"
   xmlns="http://www.w3.org/2000/svg"
   xmlns:svg="http://www.w3.org/2000/svg">
  <sodipodi:namedview
     id="namedview8"
     pagecolor="#ffffff"
     bordercolor="#000000"
     borderopacity="0.25"
     inkscape:showpageshadow="2"
     inkscape:pageopacity="0.0"
     inkscape:pagecheckerboard="0"
     inkscape:deskcolor="#d1d1d1"
     inkscape:zoom="1.6512687"
     inkscape:cx="300.3751"
     inkscape:cy="61.467888"
     inkscape:window-width="5160"
     inkscape:window-height="2054"
     inkscape:window-x="-11"
     inkscape:window-y="-11"
     inkscape:window-maximized="1"
     inkscape:current-layer="svg8" />
  <g
     clip-path="url(#clip0_84_3360)"
     id="g7"
     transform="translate(8,2)">
    <path
       d="m 10.6135,93.6847 c 0,-2.3438 -2e-4,-1.1489 -0.0232,-3.0574 m 84.7419,2.5949 0.0076,0.4625 m -84.7181,-3e-4 -0.0319,-4.1994 m 119.0382,0 -0.006,4.1994 M 10.6306,93.6856 10.5898,88.315 c 0,-42.364 34.3437,-76.7076 76.7076,-76.7076 42.3636,0 76.7076,34.3436 76.7076,76.7076 v 5.3706"
       stroke="#3186ff"
       stroke-width="19.825"
       stroke-miterlimit="10"
       id="path1" />
    <path
       d="m 10.6135,93.6848 c 0,-2.3438 -2e-4,-1.1489 -0.0232,-3.0574 m 0.0314,3.0571 -0.0319,-4.1994 c 0,-33.1253 27.3621,-59.0593 59.9792,-59.0593 32.617,0 59.059,26.4421 59.059,59.0593 l -0.006,4.1994 M 10.6306,93.6857 10.5898,88.3151"
       stroke="#4fa0ff"
       stroke-width="19.825"
       stroke-miterlimit="10"
       id="path2" />
    <path
       d="m 139.533,120.782 c 0,3.159 -2.56,5.719 -5.719,5.719 h -8.387 c -3.158,0 -5.719,-2.56 -5.719,-5.719 V 93.6836 h 19.825 z"
       fill="#4fa0ff"
       id="path3" />
    <path
       d="m 173.893,120.782 c 0,3.159 -2.561,5.719 -5.719,5.719 h -8.388 c -3.158,0 -5.718,-2.56 -5.718,-5.719 V 93.6836 h 19.825 z"
       fill="#3186ff"
       id="path4" />
    <path
       d="m 51.6629,39.6426 c 29.2361,0 53.0021,23.4161 53.5691,52.5166 h 0.021 v 28.6228 c 0,3.159 -2.561,5.719 -5.719,5.719 h -8.3877 c -3.1584,0 -5.7187,-2.56 -5.7187,-5.719 V 93.8467 l -0.0078,-0.4629 -10e-4,-0.0801 V 93.2236 C 85.4187,74.5811 70.3055,59.4668 51.6629,59.4668 c -9.6858,1e-4 -17.4342,3.3705 -22.6982,8.6084 -5.0162,4.9915 -8.2793,12.1774 -8.4571,21.1738 l 0.0342,4.3623 h -0.0176 c 0,0.024 0.001,0.0485 0.001,0.0733 h 0.0274 v 27.0984 c -2e-4,3.158 -2.5605,5.719 -5.7188,5.719 H 6.4471 c -3.15825,0 -5.71855,-2.561 -5.71875,-5.719 V 93.7607 l -0.010742,0.001 v -0.0019 l -0.008789,9e-4 -9.77e-4,-0.0752 H 0.70003 c 0,-0.7714 -0.001386,-1.1335 -0.001953,-1.3339 L 0.695147,91.9463 C 0.69431,91.8999 0.692748,91.8384 0.691241,91.749 0.687681,91.538 0.683487,91.2384 0.677569,90.748 0.670851,90.1914 0.673604,89.6368 0.682452,89.085 l -0.00586,-0.6934 0.021485,-10e-4 C 1.07691,74.825 6.15739,62.8017 14.9813,54.0215 24.2974,44.7516 37.2318,39.6426 51.6629,39.6426 Z"
       fill="#76bbff"
       id="path5" />
    <path
       d="m 51.6629,39.6426 c 29.2361,0 53.0021,23.4161 53.5691,52.5166 h 0.021 v 28.6228 c 0,3.159 -2.561,5.719 -5.719,5.719 h -8.3877 c -3.1584,0 -5.7187,-2.56 -5.7187,-5.719 V 93.8467 l -0.0078,-0.4629 -10e-4,-0.0801 V 93.2236 C 85.4187,74.5811 70.3055,59.4668 51.6629,59.4668 c -9.6858,1e-4 -17.4342,3.3705 -22.6982,8.6084 -5.0162,4.9915 -8.2793,12.1774 -8.4571,21.1738 l 0.0342,4.3623 h -0.0176 c 0,0.024 0.001,0.0485 0.001,0.0733 h 0.0274 v 27.0984 c -2e-4,3.158 -2.5605,5.719 -5.7188,5.719 H 6.4471 c -3.15825,0 -5.71855,-2.561 -5.71875,-5.719 V 93.7607 l -0.010742,0.001 v -0.0019 l -0.008789,9e-4 -9.77e-4,-0.0752 H 0.70003 c 0,-0.7714 -0.001386,-1.1335 -0.001953,-1.3339 L 0.695147,91.9463 C 0.69431,91.8999 0.692748,91.8384 0.691241,91.749 0.687681,91.538 0.683487,91.2384 0.677569,90.748 0.670851,90.1914 0.673604,89.6368 0.682452,89.085 l -0.00586,-0.6934 0.021485,-10e-4 C 1.07691,74.825 6.15739,62.8017 14.9813,54.0215 24.2974,44.7516 37.2318,39.6426 51.6629,39.6426 Z"
       fill="url(#paint0_radial_84_3360)"
       id="path6"
       style="fill:url(#paint0_radial_84_3360)" />
  </g>
  <defs
     id="defs8">
    <radialGradient
       id="paint0_radial_84_3360"
       cx="0"
       cy="0"
       r="1"
       gradientTransform="matrix(-63.2887,3.8125,-5.39367,-89.532,87.5016,101.339)"
       gradientUnits="userSpaceOnUse">
      <stop
         offset="0.566674"
         stop-color="#76BBFF"
         id="stop7" />
      <stop
         offset="1"
         stop-color="#A9A8FF"
         id="stop8" />
    </radialGradient>
    <clipPath
       id="clip0_84_3360">
      <rect
         width="1537"
         height="131"
         fill="#ffffff"
         id="rect8"
         x="0"
         y="0" />
    </clipPath>
  </defs>
</svg>
